<?xml version="1.0" encoding="UTF-8"?>
<svg version="1.1" xmlns="http://www.w3.org/2000/svg" width="48" height="48">
<path d="M0 0 C2.7607263 3.27197192 3.65695749 6.44198785 3.4765625 10.73046875 C2.48967681 15.43030962 0.25217303 19.48680658 -3 23 C-6.875 23.625 -6.875 23.625 -10 23 C-10 23.99 -10 24.98 -10 26 C-10.66 26 -11.32 26 -12 26 C-15.03780378 20.7749775 -15.03780378 20.7749775 -14.875 17.4375 C-13.89365378 14.70374982 -12.59258725 12.42350233 -11 10 C-10.67 10.99 -10.34 11.98 -10 13 C-8.68 12.67 -7.36 12.34 -6 12 C-6.515625 11.2575 -7.03125 10.515 -7.5625 9.75 C-9 7 -9 7 -9 4.875 C-7.0423005 1.20431344 -4.0135285 0 0 0 Z " fill="#4BAE4F" transform="translate(40,17)"/>
<path d="M0 0 C2.30266517 -0.10532047 4.52901633 -0.03792189 6.82910156 0.11083984 C7.621875 0.13791016 8.41464844 0.16498047 9.23144531 0.19287109 C11.18183522 0.26336711 13.13082057 0.37098485 15.07910156 0.48583984 C15.73910156 1.80583984 16.39910156 3.12583984 17.07910156 4.48583984 C18.39910156 4.15583984 19.71910156 3.82583984 21.07910156 3.48583984 C18.63204274 10.26231043 18.63204274 10.26231043 16.07910156 12.48583984 C13.05168901 12.82521171 10.11216868 12.71475057 7.07910156 12.48583984 C7.40910156 11.49583984 7.73910156 10.50583984 8.07910156 9.48583984 C7.41910156 8.82583984 6.75910156 8.16583984 6.07910156 7.48583984 C4.75910156 9.79583984 3.43910156 12.10583984 2.07910156 14.48583984 C-1.00403354 13.28684286 -3.98369336 12.00883507 -6.92089844 10.48583984 C-6.2703315 6.25715475 -4.51429936 1.14177119 0 0 Z " fill="#4AAF4E" transform="translate(17.9208984375,5.51416015625)"/>
<path d="M0 0 C3.3 0 6.6 0 10 0 C11.32 2.64 12.64 5.28 14 8 C12.68 8.33 11.36 8.66 10 9 C9.67 9.66 9.34 10.32 9 11 C12.3 11.33 15.6 11.66 19 12 C19 14.97 19 17.94 19 21 C14.82073345 21.67938816 11.15161051 21.93579266 7 21 C2.87054951 17.0759948 0.13858235 12.5637734 -0.171875 6.8203125 C-0.11515625 5.88960937 -0.0584375 4.95890625 0 4 C0 3.01 0 2.02 0 1 C0 0.67 0 0.34 0 0 Z " fill="#4BAF4F" transform="translate(5,19)"/>
<path d="M0 0 C0.94875 0.185625 1.8975 0.37125 2.875 0.5625 C4.875 3.5625 4.875 3.5625 4.6875 6.4375 C3.86080683 9.61708912 2.70680644 11.85461222 0.875 14.5625 C-2.2081351 13.36350302 -5.18779492 12.08549523 -8.125 10.5625 C-7.3464265 5.50177227 -5.27495921 0.94949266 0 0 Z " fill="#2D7B31" transform="translate(19.125,5.4375)"/>
<path d="M0 0 C3.54717649 4.20406102 3.2659662 7.76933149 3 13 C0.69 13.33 -1.62 13.66 -4 14 C-4.86949317 12.92892883 -5.72014205 11.84254056 -6.5625 10.75 C-7.03816406 10.14671875 -7.51382813 9.5434375 -8.00390625 8.921875 C-9 7 -9 7 -8.80078125 4.875 C-7.18206747 1.08484091 -3.88626122 0 0 0 Z " fill="#2D7C31" transform="translate(40,17)"/>
<path d="M0 0 C1.65322266 0.01740234 1.65322266 0.01740234 3.33984375 0.03515625 C4.99693359 0.04869141 4.99693359 0.04869141 6.6875 0.0625 C7.54214844 0.07410156 8.39679687 0.08570312 9.27734375 0.09765625 C9.27734375 3.06765625 9.27734375 6.03765625 9.27734375 9.09765625 C7.31968094 9.17847719 5.36107647 9.23676403 3.40234375 9.28515625 C2.31179687 9.31996094 1.22125 9.35476562 0.09765625 9.390625 C-0.83304688 9.29394531 -1.76375 9.19726562 -2.72265625 9.09765625 C-4.72265625 6.09765625 -4.72265625 6.09765625 -4.41015625 3.47265625 C-3.44063725 0.1234088 -3.44063725 0.1234088 0 0 Z " fill="#2D7D31" transform="translate(14.72265625,30.90234375)"/>
</svg>
